<svg width="42" height="42" viewBox="0 0 42 42" fill="none" xmlns="http://www.w3.org/2000/svg">
<circle cx="21" cy="21" r="20.25" fill="#0D182E" stroke="white" stroke-width="1.5"/>
<path fill-rule="evenodd" clip-rule="evenodd" d="M10 31.0818C10 30.6506 10.3496 30.301 10.7808 30.301H27.9581C28.3893 30.301 28.7389 30.6506 28.7389 31.0818C28.7389 31.513 28.3893 31.8626 27.9581 31.8626H10.7808C10.3496 31.8626 10 31.513 10 31.0818Z" fill="white"/>
<path fill-rule="evenodd" clip-rule="evenodd" d="M27.3071 11.8218C27.0917 11.8975 27.0317 12.0836 26.8516 12.2773C26.6715 12.471 16.8815 22.089 16.8815 22.089L16.2958 25.4414L19.6416 24.8503L29.941 14.5509C30.0873 14.4045 30.1696 14.2059 30.1696 13.9989C30.1696 13.7919 30.0874 13.5933 29.9411 13.4469M27.3071 11.8218C27.4749 11.7628 27.5959 11.7595 27.7625 11.8218C27.8949 11.8714 28.0528 12.0383 28.0528 12.0383L29.9411 13.4469M26.0763 10.6858C26.5155 10.2467 27.1112 10 27.7323 10C28.3534 10 28.9491 10.2467 29.3884 10.6858L31.0453 12.3427C31.4844 12.782 31.7312 13.3777 31.7312 13.9989C31.7312 14.62 31.4845 15.2156 31.0454 15.6549L20.5718 26.1285C20.4586 26.2417 20.3133 26.3174 20.1556 26.3452L15.4708 27.1729C15.2201 27.2172 14.9636 27.1365 14.7834 26.9566C14.6032 26.7768 14.522 26.5204 14.5659 26.2696L15.3857 21.5771C15.4133 21.4188 15.4891 21.273 15.6027 21.1594L26.0763 10.6858Z" fill="white"/>
</svg>
