<svg width="16" height="16" viewBox="0 0 16 16" fill="none" xmlns="http://www.w3.org/2000/svg">
<path fill-rule="evenodd" clip-rule="evenodd" d="M0 15.4289C0 15.1133 0.255838 14.8574 0.57143 14.8574H13.1429C13.4585 14.8574 13.7143 15.1133 13.7143 15.4289C13.7143 15.7444 13.4585 16.0003 13.1429 16.0003H0.57143C0.255838 16.0003 0 15.7444 0 15.4289Z" fill="white"/>
<path fill-rule="evenodd" clip-rule="evenodd" d="M12.6664 1.33334C12.5087 1.38875 12.4648 1.52493 12.333 1.66667C12.2013 1.80841 5.03626 8.84752 5.03626 8.84752L4.60761 11.301L7.05629 10.8684L14.5941 3.33062C14.7012 3.22347 14.7614 3.07811 14.7614 2.92662C14.7614 2.77513 14.7012 2.62983 14.5941 2.52268M12.6664 1.33334C12.7892 1.29017 12.8778 1.28768 12.9997 1.33334C13.0966 1.36963 13.2121 1.49179 13.2121 1.49179L14.5941 2.52268M11.7656 0.501921C12.0871 0.180541 12.523 0 12.9776 0C13.4322 0 13.8681 0.180541 14.1896 0.501921L15.4023 1.71456C15.7236 2.03603 15.9042 2.47205 15.9042 2.92662C15.9042 3.38119 15.7237 3.81715 15.4023 4.13862L7.73709 11.8039C7.65421 11.8867 7.54786 11.9421 7.43244 11.9625L4.00386 12.5682C3.82039 12.6006 3.63264 12.5416 3.50077 12.41C3.3689 12.2783 3.30948 12.0907 3.34154 11.9072L3.94154 8.47286C3.96178 8.35704 4.01725 8.25028 4.10039 8.16715L11.7656 0.501921Z" fill="white"/>
</svg>
