<svg width="25" height="26" viewBox="0 0 25 26" fill="none" xmlns="http://www.w3.org/2000/svg">
<g clip-path="url(#clip0_95_165)">
<path d="M3.70687 25.2964C4.25859 25.2964 4.67237 25.1394 5.26546 24.7826L21.2513 15.3195C22.2306 14.7343 22.7134 14.0206 22.7134 13.2071C22.7134 12.4078 22.2306 11.6798 21.2513 11.0946L5.26546 1.63151C4.67237 1.27468 4.25859 1.11768 3.70687 1.11768C2.63103 1.11768 1.77588 1.95979 1.77588 3.48702V22.9414C1.77588 24.4543 2.63103 25.2964 3.70687 25.2964ZM4.29997 22.6559C4.10687 22.6559 3.99652 22.5417 3.99652 22.3133V4.10077C3.99652 3.88667 4.10687 3.75821 4.29997 3.75821C4.39652 3.75821 4.49306 3.80103 4.60341 3.8724L19.679 12.8359C19.8583 12.9216 19.9824 13.0215 19.9824 13.2071C19.9824 13.3926 19.8583 13.4925 19.679 13.5924L4.60341 22.5417C4.49306 22.6131 4.39652 22.6559 4.29997 22.6559Z" fill="#DEE2E6"/>
</g>
<defs>
<clipPath id="clip0_95_165">
<path d="M0.0311279 8.66651C0.0311279 4.24823 3.61285 0.666504 8.03113 0.666504H16.4582C20.8765 0.666504 24.4582 4.24823 24.4582 8.6665V17.9443C24.4582 22.3626 20.8765 25.9443 16.4582 25.9443H8.03113C3.61286 25.9443 0.0311279 22.3626 0.0311279 17.9443V8.66651Z" fill="white"/>
</clipPath>
</defs>
</svg>
