<svg width="56" height="34" viewBox="0 0 56 34" fill="none" xmlns="http://www.w3.org/2000/svg">
<g opacity="0.5" clip-path="url(#clip0_479_2021)">
<path d="M35.898 17.5285L51.0658 33.2937C51.9521 34.2108 53.3993 34.2291 54.3037 33.3304C55.2082 32.4316 55.2263 30.9642 54.3399 30.0471L42.2654 17.5285L54.3489 5.00072C55.2353 4.08361 55.2172 2.61623 54.3128 1.71746C53.4083 0.818687 51.9521 0.837029 51.0748 1.75414L35.898 17.5285Z" fill="#E7E8EB"/>
<path d="M17.9444 17.5285L33.1121 33.2937C33.9985 34.2108 35.4456 34.2291 36.3501 33.3304C37.2546 32.4316 37.2726 30.9642 36.3863 30.0471L24.3118 17.5285L36.3953 5.00072C37.2817 4.08361 37.2636 2.61623 36.3591 1.71746C35.4547 0.818687 33.9985 0.837029 33.1212 1.75414L17.9535 17.5193L17.9444 17.5285Z" fill="#E7E8EB"/>
<path d="M-3.5247e-05 17.5285L15.1677 33.2937C16.0541 34.2108 17.5012 34.2291 18.4057 33.3304C19.3101 32.4316 19.3282 30.9642 18.4418 30.0471L6.36734 17.5285L18.4418 5.0099C19.3282 4.09278 19.3101 2.6254 18.4057 1.72663L18.4057 1.71746C17.5012 0.818687 16.045 0.837029 15.1677 1.75414L-3.52465e-05 17.5193L-3.5247e-05 17.5285Z" fill="#E7E8EB"/>
</g>
<defs>
<clipPath id="clip0_479_2021">
<rect width="34" height="56" fill="white" transform="translate(56) rotate(90)"/>
</clipPath>
</defs>
</svg>
